Hanif_Deep_7_5_grf.mot
version=1
nRows=37
nColumns=19
inDegrees=yes
endheader
time	right_ground_force_vx	right_ground_force_vy	right_ground_force_vz	right_ground_force_px	right_ground_force_py	right_ground_force_pz	right_ground_torque_x	right_ground_torque_y	right_ground_torque_z	left_ground_force_vx	left_ground_force_vy	left_ground_force_vz	left_ground_force_px	left_ground_force_py	left_ground_force_pz	left_ground_torque_x	left_ground_torque_y	left_ground_torque_z
0.000000	6.002720	252.997000	49.667400	0.174673	0.000000	-1.442610	-15.975600	4.247030	-5.895650	-7.131460	332.641000	-54.936600	0.226419	0.000000	-1.022670	39.895000	-1.761010	9.459570
0.005000	6.249720	254.875000	49.304800	0.174271	0.000000	-1.443510	-15.861300	4.336670	-6.039830	-7.099410	333.763000	-54.563000	0.228094	0.000000	-1.023140	40.184100	-1.710070	10.046500
0.010000	5.995480	254.849000	49.580600	0.175226	0.000000	-1.442290	-16.173800	4.260910	-5.798050	-7.041970	335.537000	-55.068700	0.228015	0.000000	-1.022880	40.311300	-1.727480	10.075300
0.015000	6.170900	255.607000	49.662100	0.175872	0.000000	-1.442650	-16.127600	4.272700	-5.646030	-7.150420	336.319000	-55.337700	0.227853	0.000000	-1.022350	40.223900	-1.644310	10.032100
0.020000	6.361290	253.708000	49.837400	0.174252	0.000000	-1.441150	-16.387400	4.293020	-6.022210	-7.852230	334.480000	-55.207800	0.228691	0.000000	-1.022950	40.216200	-1.591160	10.276200
0.025000	5.890030	255.217000	49.399800	0.175572	0.000000	-1.441820	-16.318600	4.233640	-5.721760	-7.321250	336.672000	-55.236000	0.228641	0.000000	-1.022490	40.316400	-1.560420	10.301900
0.030000	6.114840	254.097000	50.481100	0.175903	0.000000	-1.441540	-16.314300	4.271120	-5.594350	-7.945510	334.458000	-55.469800	0.229025	0.000000	-1.023420	40.372900	-1.556180	10.391300
0.035000	6.022090	254.489000	50.394200	0.175959	0.000000	-1.442070	-16.207000	4.228970	-5.596910	-7.937220	334.471000	-55.198600	0.229142	0.000000	-1.023240	40.314600	-1.590010	10.432400
0.040000	6.385570	252.989000	50.293800	0.175534	0.000000	-1.442110	-16.102500	4.086260	-5.703110	-8.214410	334.473000	-55.280800	0.228892	0.000000	-1.023390	40.367100	-1.521350	10.342500
0.045000	5.834690	254.120000	50.124000	0.176119	0.000000	-1.441830	-16.248000	4.119680	-5.565890	-8.366790	334.128000	-55.044300	0.229565	0.000000	-1.023000	40.199200	-1.454690	10.551500
0.050000	6.006190	255.217000	50.031300	0.176349	0.000000	-1.442130	-16.243200	4.009530	-5.557420	-8.444490	333.038000	-54.677700	0.229991	0.000000	-1.023200	40.134500	-1.472010	10.665800
0.055000	5.916680	255.967000	50.216700	0.176691	0.000000	-1.441890	-16.352300	4.026180	-5.480450	-8.452610	333.745000	-54.854900	0.229921	0.000000	-1.022660	40.041500	-1.490850	10.667100
0.060000	5.294020	255.275000	49.955500	0.178822	0.000000	-1.442180	-16.239400	3.936330	-4.908990	-8.718390	333.026000	-54.932600	0.230270	0.000000	-1.023210	40.144400	-1.488200	10.773300
0.065000	5.649560	255.984000	50.220600	0.177984	0.000000	-1.441500	-16.454100	4.031730	-5.133270	-8.347060	333.775000	-54.584000	0.230244	0.000000	-1.023080	40.181000	-1.352990	10.749800
0.070000	5.568210	256.375000	50.410200	0.178516	0.000000	-1.442170	-16.309600	3.940270	-5.016140	-8.432610	331.202000	-54.310800	0.230180	0.000000	-1.023200	39.916100	-1.437870	10.666600
0.075000	5.119830	256.375000	50.413900	0.179588	0.000000	-1.441580	-16.461900	3.990230	-4.715780	-8.427920	329.719000	-54.220600	0.230318	0.000000	-1.023740	39.914300	-1.401730	10.664600
0.080000	4.747880	254.151000	49.693900	0.179507	0.000000	-1.440960	-16.484500	3.757010	-4.733250	-8.317330	330.094000	-54.212800	0.231251	0.000000	-1.024520	40.216700	-1.365130	10.984300
0.085000	4.579130	257.140000	50.516700	0.180393	0.000000	-1.441390	-16.567100	3.851610	-4.537660	-8.144560	330.468000	-54.132800	0.231158	0.000000	-1.023460	39.908200	-1.351210	10.955100
0.090000	4.667890	255.643000	50.145800	0.181241	0.000000	-1.440480	-16.706000	3.586890	-4.336450	-8.312980	329.750000	-53.759700	0.231671	0.000000	-1.023060	39.691500	-1.369450	11.107000
0.095000	4.383550	257.156000	49.972900	0.182049	0.000000	-1.441110	-16.646300	3.598890	-4.146480	-8.481070	331.607000	-53.479100	0.232068	0.000000	-1.023110	39.933500	-1.386620	11.298400
0.100000	4.034890	257.538000	50.436800	0.181792	0.000000	-1.441160	-16.663700	3.474420	-4.240030	-8.478480	330.859000	-53.922200	0.232640	0.000000	-1.024050	40.154300	-1.228950	11.453800
0.105000	4.111780	258.295000	50.070300	0.182650	0.000000	-1.441380	-16.651600	3.634290	-3.996820	-8.471280	330.116000	-53.915800	0.233292	0.000000	-1.024320	40.153800	-1.227530	11.651700
0.110000	4.205640	257.896000	50.248700	0.183187	0.000000	-1.440270	-16.912500	3.499390	-3.872630	-8.916690	330.126000	-53.628200	0.233487	0.000000	-1.024110	40.091300	-1.176790	11.713200
0.115000	4.026800	259.012000	50.527300	0.182836	0.000000	-1.440310	-16.975100	3.628990	-3.958590	-8.653860	330.868000	-53.727600	0.233793	0.000000	-1.022810	39.742100	-0.993470	11.805500
0.120000	4.380740	259.016000	50.066300	0.184510	0.000000	-1.440380	-16.956800	3.464330	-3.548050	-9.347940	329.028000	-53.241900	0.234696	0.000000	-1.023690	39.823200	-0.954426	12.052000
0.125000	4.844600	258.992000	50.679400	0.184599	0.000000	-1.438880	-17.340700	3.459030	-3.528330	-9.454170	329.748000	-53.774300	0.235198	0.000000	-1.023180	39.742500	-0.904503	12.247900
0.130000	4.572390	259.386000	50.600900	0.184753	0.000000	-1.439390	-17.236200	3.416930	-3.498260	-9.431180	327.533000	-53.473800	0.235425	0.000000	-1.023320	39.521800	-0.885714	12.242000
0.135000	4.731160	261.591000	50.238900	0.185686	0.000000	-1.439240	-17.421700	3.383270	-3.293460	-9.698450	326.797000	-53.903200	0.235989	0.000000	-1.025010	39.990900	-0.896615	12.424300
0.140000	4.104210	261.994000	50.529900	0.184614	0.000000	-1.439730	-17.327700	3.313680	-3.594310	-10.064500	328.281000	-53.454100	0.235449	0.000000	-1.023180	39.567800	-0.697248	12.256300
0.145000	4.554840	261.599000	50.334700	0.184833	0.000000	-1.440210	-17.170500	3.311370	-3.535070	-9.514280	327.898000	-53.557900	0.235963	0.000000	-1.024110	39.826000	-0.863893	12.436000
0.150000	4.318640	260.148000	51.061200	0.185546	0.000000	-1.439540	-17.251600	3.323430	-3.308950	-9.685470	326.828000	-53.187100	0.236339	0.000000	-1.024000	39.662300	-0.778391	12.508400
0.155000	3.680130	262.016000	51.085600	0.186051	0.000000	-1.440420	-17.150100	3.236470	-3.209760	-9.587030	326.828000	-53.092000	0.237032	0.000000	-1.023700	39.557300	-0.607853	12.709300
0.160000	4.133060	260.895000	51.151400	0.186394	0.000000	-1.438750	-17.509500	3.187400	-3.115840	-10.123300	325.347000	-53.163800	0.236670	0.000000	-1.024830	39.756500	-0.706603	12.566100
0.165000	3.957900	261.289000	51.160700	0.186661	0.000000	-1.440200	-17.158900	3.207630	-3.041900	-10.384100	325.337000	-52.699100	0.236284	0.000000	-1.025230	39.889900	-0.721511	12.436900
0.170000	4.217560	260.523000	50.971800	0.186435	0.000000	-1.438880	-17.451800	3.146150	-3.109100	-10.276400	324.625000	-52.597400	0.237354	0.000000	-1.025350	39.839500	-0.669253	12.756600
0.175000	4.074930	262.448000	50.426000	0.187901	0.000000	-1.439760	-17.351100	3.048340	-2.758660	-10.178800	323.899000	-52.159200	0.237449	0.000000	-1.025410	39.771000	-0.719987	12.760800
0.180000	3.360910	265.049000	50.806400	0.188027	0.000000	-1.440380	-17.364000	3.067220	-2.744350	-9.731750	327.549000	-52.344400	0.237954	0.000000	-1.024700	39.979100	-0.724089	13.054400
